<svg width="15" height="27" viewBox="0 0 15 27" fill="none" xmlns="http://www.w3.org/2000/svg">
<path opacity="0.3" d="M7.72959 13.5391C7.72959 8.06087 5.28061 3.2087 1.37755 0L0 1.48696L0.0765309 1.56522C3.52041 4.38261 5.66326 8.68696 5.66326 13.5391C5.66326 18.3913 3.52041 22.6957 0.153061 25.4348L0.0765309 25.513L1.45408 27C5.28061 23.8696 7.72959 18.9391 7.72959 13.5391Z" transform="translate(7.26953)" fill="black"/>
<path d="M5.81633 9.70435C5.81633 5.7913 4.20918 2.26957 1.37755 0L0 1.48696C2.44898 3.36522 3.82653 6.26087 3.82653 9.70435C3.82653 13.0696 2.37245 16.0435 0 17.8435L1.37755 19.3304C4.20918 17.0609 5.81633 13.5391 5.81633 9.70435Z" transform="translate(3.67383 3.83447)" fill="black"/>
<path d="M4.05612 5.71304C4.05612 3.44348 3.06122 1.33043 1.37755 0L0 1.48696C1.22449 2.42609 2.06633 3.9913 2.06633 5.71304C2.06633 7.43478 1.22449 9 0 9.93913L1.37755 11.4261C3.06122 10.0957 4.05612 7.98261 4.05612 5.71304Z" transform="translate(0 7.82617)" fill="black"/>
</svg>
