<svg width="234" height="79" fill="none" xmlns="http://www.w3.org/2000/svg"><path fill="none" d="M0 0h234.001v78.992H0z"/><path fill="none" d="M0 0h234.001v78.992H0z"/><path opacity=".2" d="M32.742 78.992L10.85 68.94l21.892-10.04 21.879 10.04-21.879 10.053z" fill="url(#paint0_linear)"/><path fill="none" d="M80.191 28.725h153.81v25.51H80.19z"/><path d="M92.707 45.087l7.94-15.971h4.591l-12.53 25.12-12.517-25.12h4.66l7.856 15.97zM115.369 33v6.086h11.721v3.87h-11.721v6.92h13.828v3.872h-18.195V29.116h17.274V33h-12.907zM141.193 43.903v9.845h-4.353V29.116h9.042c2.107 0 4.325.041 6.209 1.128 2.176 1.267 3.516 3.3 3.516 6.307 0 2.715-1.27 4.707-3.265 6.043-.586.362-1.34.655-1.926.864l6.168 10.29h-5.191l-5.735-9.859h-4.465v.014zm0-3.912h4.689c1.772 0 2.72-.14 3.488-.474 1.088-.501 1.744-1.74 1.744-3.077s-.656-2.534-1.744-3.008c-.768-.32-1.702-.473-3.488-.473h-4.689v7.032zM178.617 35.464c-1.381-1.698-3.628-2.965-6.39-2.965-2.875 0-4.535 1.406-4.535 3.3 0 1.81 1.2 2.492 3.99 3.119l2.973.654c4.604 1.044 7.953 2.534 7.953 7.032 0 4.567-3.74 7.602-9.907 7.602-5.372 0-9.042-2.645-10.744-5.04l3.628-2.604c1.13 1.852 3.851 3.774 7.325 3.774 3.307 0 5.01-1.379 5.01-3.328 0-1.922-1.703-2.646-4.214-3.189l-3.307-.724c-4.033-.863-7.409-2.576-7.409-7.06 0-4.386 4.102-7.31 9.334-7.31 5.121 0 8.135 2.492 9.586 4.094l-3.293 2.645zM193.779 33v6.086H205.5v3.87h-11.721v6.92h13.828v3.872h-18.181V29.116H206.7V33h-12.921zM230.008 35.464c-1.382-1.698-3.628-2.965-6.391-2.965-2.874 0-4.535 1.406-4.535 3.3 0 1.81 1.2 2.492 3.991 3.119l2.972.654c4.605 1.044 7.954 2.534 7.954 7.032 0 4.567-3.74 7.602-9.907 7.602-5.372 0-9.042-2.645-10.744-5.04l3.628-2.604c1.13 1.852 3.851 3.774 7.325 3.774 3.307 0 5.009-1.379 5.009-3.328 0-1.922-1.702-2.646-4.214-3.189l-3.307-.724c-4.032-.863-7.409-2.576-7.409-7.06 0-4.386 4.102-7.31 9.335-7.31 5.121 0 8.135 2.492 9.586 4.094l-3.293 2.645z" fill="#fff"/><path opacity=".4" d="M32.756 12.324V68.94l16.381-28.308 16.367-28.308H32.756z" fill="url(#paint1_linear)"/><path d="M0 12.336l16.381 28.309 16.367 28.294V12.336H0z" fill="url(#paint2_linear)"/><path d="M32.756 12.336V68.94l16.381-28.294 16.367-28.309H32.756z" fill="url(#paint3_linear)"/><path d="M65.504 12.335L32.756.15V24.518l32.748-12.183z" fill="url(#paint4_linear)"/><path opacity=".2" d="M65.504 12.335L32.756.15V24.518l32.748-12.183z" fill="url(#paint5_linear)"/><path opacity=".2" d="M0 12.185l16.381 28.309 16.367 28.294V12.186H0z" fill="url(#paint6_linear)"/><path opacity=".6" d="M0 12.336l16.381 28.309 16.367 28.294V12.336H0z" fill="url(#paint7_linear)"/><path d="M0 12.335L32.748.15V24.518L0 12.335z" fill="url(#paint8_linear)"/><path opacity=".6" d="M0 12.337L32.748 0v24.521L0 12.337z" fill="url(#paint9_linear)"/><path opacity=".4" d="M65.497 12.336L32.748 24.52 0 12.336l.014.028 32.734 12.741-.014 43.764.558-43.945 32.065-12.337.14-.25z" fill="#fff"/><path opacity=".4" d="M32.756 14.023V68.94l32.748-56.616-32.748 1.699z" fill="url(#paint10_linear)"/><defs><linearGradient id="paint0_linear" x1="42.072" y1="68.944" x2="17.012" y2="68.944" gradientUnits="userSpaceOnUse"><stop stop-color="#fff" stop-opacity=".3"/><stop offset="1" stop-color="#fff"/></linearGradient><linearGradient id="paint1_linear" x1="33.534" y1="59.033" x2="48.1" y2="15.241" gradientUnits="userSpaceOnUse"><stop stop-color="#C99FC9"/><stop offset="1" stop-color="#C99FC9" stop-opacity="0"/></linearGradient><linearGradient id="paint2_linear" x1="16.376" y1="58.071" x2="16.376" y2="35.07" gradientUnits="userSpaceOnUse"><stop stop-color="#AFDFE8"/><stop offset="1" stop-color="#40BFC1"/></linearGradient><linearGradient id="paint3_linear" x1="49.135" y1="75.906" x2="49.135" y2="30.112" gradientUnits="userSpaceOnUse"><stop stop-color="#DFF1F4"/><stop offset="1" stop-color="#AFDFE8"/></linearGradient><linearGradient id="paint4_linear" x1="46.25" y1="12.277" x2="38.595" y2="28.405" gradientUnits="userSpaceOnUse"><stop stop-color="#40BFC1"/><stop offset="1" stop-color="#007F74"/></linearGradient><linearGradient id="paint5_linear" x1="44.728" y1="27.988" x2="48.945" y2="7.055" gradientUnits="userSpaceOnUse"><stop stop-color="#fff" stop-opacity="0"/><stop offset="1" stop-color="#fff"/></linearGradient><linearGradient id="paint6_linear" x1="30.125" y1="39.397" x2="-1.463" y2="26.233" gradientUnits="userSpaceOnUse"><stop stop-color="#C99FC9"/><stop offset="1" stop-color="#C99FC9" stop-opacity="0"/></linearGradient><linearGradient id="paint7_linear" x1="30.126" y1="39.55" x2="-1.462" y2="26.385" gradientUnits="userSpaceOnUse"><stop stop-opacity="0"/><stop offset=".944" stop-opacity=".893"/><stop offset="1"/></linearGradient><linearGradient id="paint8_linear" x1="16.374" y1="10.363" x2="16.374" y2="28.935" gradientUnits="userSpaceOnUse"><stop stop-color="#009E9B"/><stop offset="1" stop-color="#224C68"/></linearGradient><linearGradient id="paint9_linear" x1="32.126" y1="8.719" x2="6.595" y2="24.524" gradientUnits="userSpaceOnUse"><stop stop-opacity="0"/><stop offset=".944" stop-opacity=".893"/><stop offset="1"/></linearGradient><linearGradient id="paint10_linear" x1="33.786" y1="59.117" x2="48.353" y2="15.325" gradientUnits="userSpaceOnUse"><stop stop-color="#C99FC9"/><stop offset="1" stop-color="#C99FC9" stop-opacity="0"/></linearGradient></defs></svg>