<svg width="165" height="165" viewBox="0 0 165 165" fill="none" xmlns="http://www.w3.org/2000/svg">
<path opacity="0.6" d="M20.8531 11.9733L51.9336 29.9334L30.9476 42.0397L0.265645 24.3458L0 0L20.8531 11.9733Z" transform="translate(31.2656 86.7217)" fill="url(#paint0_linear)"/>
<path opacity="0.9" d="M52.0664 102.039V42.4388L0 12.3725L21.3844 0L72.7867 30.1994V90.0661L52.0664 102.039Z" transform="translate(62.2129 21)" fill="url(#paint1_linear)"/>
<path opacity="0.8" d="M21.1188 101.906V42.971L73.9821 12.5055L52.5977 0L0 30.4655L0.398467 89.9331L21.1188 101.906Z" transform="translate(31 21)" fill="url(#paint2_linear)"/>
<path opacity="0.8" d="M72.7867 0L0 42.0397L21.1188 54.2791L72.7867 24.3458V0Z" transform="translate(62.2129 86.7217)" fill="url(#paint3_linear)"/>
<defs>
<linearGradient id="paint0_linear" x2="1" gradientUnits="userSpaceOnUse" gradientTransform="translate(51.1587 17.4298) scale(53.3778 53.4641) rotate(62.9142)">
<stop stop-color="#DFF1F4"/>
<stop offset="1" stop-color="#AFDFE8"/>
</linearGradient>
<linearGradient id="paint1_linear" x2="1" gradientUnits="userSpaceOnUse" gradientTransform="translate(100.847 -10.0016) scale(141.968 142.197) rotate(71.7346)">
<stop stop-color="#DFF1F4"/>
<stop offset="0.1964" stop-color="#DDE8EF"/>
<stop offset="0.5192" stop-color="#D6CFE2"/>
<stop offset="0.9261" stop-color="#CBA7CD"/>
<stop offset="1" stop-color="#C99FC9"/>
</linearGradient>
<linearGradient id="paint2_linear" x2="1" gradientUnits="userSpaceOnUse" gradientTransform="translate(-19.3329 56.0249) scale(67.8136 67.9232) rotate(-62.4093)">
<stop stop-color="#009E9B"/>
<stop offset="1" stop-color="#224C68"/>
</linearGradient>
<linearGradient id="paint3_linear" x2="1" gradientUnits="userSpaceOnUse" gradientTransform="translate(92.3018 46.8369) scale(75.735 75.8574) rotate(153.435)">
<stop stop-color="#40BFC1"/>
<stop offset="1" stop-color="#007F74"/>
</linearGradient>
</defs>
</svg>
