<svg width="21" height="21" viewBox="0 0 21 21" fill="none" xmlns="http://www.w3.org/2000/svg">
<path d="M0.738894 0V0.949995H5.29893L0 6.26997L0.675561 6.94552L5.97449 1.64666V6.20664H6.94561V0H0.738894Z" transform="translate(13.0527 1)" fill="black" stroke="black" stroke-width="0.5"/>
<path d="M6.20671 0V0.949995H1.64668L6.94561 6.24886L6.27004 6.92441L0.971118 1.64666V6.20664H0V0H6.20671Z" transform="translate(1 1)" fill="black" stroke="black" stroke-width="0.5"/>
<path d="M0.738894 6.94552V5.99553H5.29893L0 0.675552L0.675561 0L5.97449 5.29886V0.759997H6.94561V6.94552H0.738894Z" transform="translate(13.0527 13.0542)" fill="black" stroke="black" stroke-width="0.5"/>
<path d="M6.20671 6.92441V5.97441H1.64668L6.94561 0.675552L6.27004 0L0.971118 5.27775V0.738885H0V6.92441H6.20671Z" transform="translate(1 13.0757)" fill="black" stroke="black" stroke-width="0.5"/>
</svg>
