<svg width="1440" height="42" viewBox="0 0 1440 42" fill="none" xmlns="http://www.w3.org/2000/svg">
<path d="M1440 14C1440 19.4404 1440 36.5596 1440 42C959.962 42 480.037 42 0 42C0 32.7343 0 23.2657 0 14H0.968393C8.51229 13.4606 15.9697 12.7561 23.7375 12.7154C26.1 12.7154 28.575 12.2053 30.825 11.9078C32.85 11.6528 34.7625 11.1428 36.7875 11.0152C42.1875 10.7602 47.025 10.0377 51.975 9.31512C55.125 8.84759 58.3875 8.46506 61.7625 8.12503C65.1375 7.82751 68.625 7.57249 72.1125 7.44498C75.0375 7.31748 78.3 7.615 81 7.23247C84.7125 6.67993 88.425 6.55242 92.25 6.59492C93.4875 6.63743 94.725 6.63743 95.85 6.50992C100.575 6.08489 105.187 5.53235 109.912 5.19232C115.537 4.76729 121.275 4.55477 127.013 4.25725C128.925 4.12974 131.062 4.17225 132.75 3.83222C136.462 3.10967 140.063 3.27968 143.888 3.70471C147.375 4.08724 150.975 4.25725 154.462 3.44969C155.812 3.10967 157.612 2.93966 159.3 2.93966C164.812 2.89715 170.325 2.98216 175.838 2.98216C176.738 2.98216 177.75 2.93966 178.65 2.89715C182.925 2.72714 187.088 2.55713 191.363 2.42962C196.425 2.25961 201.712 2.38712 206.662 1.96209C210.15 1.66456 213.413 0.899508 217.238 0.771999C224.213 0.474477 230.625 0.729496 236.925 2.1321C241.2 3.06717 245.587 3.78972 251.1 3.32218C254.137 3.06717 257.512 3.40719 260.775 3.5772C263.587 3.70471 266.4 4.04474 269.212 4.17225C272.025 4.29976 274.837 4.29976 277.65 4.29976C279.337 4.29976 281.25 4.29976 282.6 4.00223C285.637 3.32218 288.675 3.4922 291.825 3.40719C294.412 3.36469 297.225 3.23718 299.363 2.81215C304.988 1.70707 310.837 1.19703 317.25 1.49455C318.712 1.53705 320.175 1.32454 321.637 1.28204C323.212 1.23953 325.125 1.06952 326.363 1.32454C333.338 2.72714 340.875 2.59963 348.075 2.2171C352.462 2.00459 356.737 1.83458 361.012 1.79207C362.137 1.79207 363.375 1.70707 364.163 1.45205C367.2 0.559484 370.687 0.0494463 374.512 0.00694325C378 -0.0355598 381.6 0.134453 385.087 0.0494463C390.712 -0.0780629 395.212 0.64449 399.15 2.1321C399.937 2.47212 401.512 2.55713 402.637 2.68464C403.65 2.81215 404.887 2.81215 405.9 2.98216C411.412 3.78972 416.925 4.63978 422.55 5.44734C424.125 5.65985 426.038 5.87237 427.725 5.78736C432.225 5.61735 436.387 5.91487 440.437 6.67993C446.4 7.78501 453.15 7.23247 459.45 7.78501C463.5 8.12503 467.55 8.59257 471.6 8.9751C474.75 9.31512 478.013 10.0377 481.05 9.91016C484.313 9.78265 486.788 10.0377 489.488 10.6327C491.513 11.1003 493.875 11.5253 496.125 11.6953C508.725 12.5454 520.425 14.288 532.125 16.2006C537.3 17.0507 543.15 17.3482 548.775 17.7732C550.8 17.9432 553.05 17.6457 555.187 17.6882C570.15 17.8582 585.112 18.1133 600.075 18.1983C603 18.1983 606.375 17.9007 608.962 17.3907C612.787 16.6257 616.725 16.5831 620.325 17.1357C628.537 18.4108 636.975 18.9208 645.75 19.0483C655.425 19.1758 664.987 19.3458 674.662 19.4734C678.487 19.5159 682.313 19.5584 686.138 19.5159C687.263 19.5159 688.725 19.4309 689.513 19.1333C691.2 18.4958 693 18.5808 695.025 18.7083C697.612 18.8783 700.312 19.3033 702.675 19.0908C708.412 18.5808 714.15 17.9432 719.55 17.0932C724.725 16.2431 729.562 15.0955 735.412 14.798C737.775 14.6705 739.35 14.118 740.475 13.1829C741.375 12.3328 743.175 11.3128 745.2 11.0577C749.7 10.5052 753.188 9.52764 756.45 8.38005C757.688 7.95502 758.025 7.23247 758.812 6.63743C759.6 6.04238 760.275 5.36233 761.513 4.9373C762.863 4.46977 765 4.34226 766.35 3.91723C768.15 3.36469 769.95 3.27968 772.087 3.44969C773.887 3.5772 775.8 3.5772 777.6 3.61971C779.962 3.66221 782.325 3.70471 784.687 3.74722C786.037 3.78972 787.5 3.91723 788.85 3.83222C791.437 3.66221 794.137 3.36469 796.612 3.06717C803.475 2.2171 809.887 3.19467 816.3 3.83222C823.162 4.51227 830.137 5.06481 837.337 4.8948C846.337 4.68228 855.225 4.38476 864.225 4.34226C869.737 4.29976 875.362 4.68228 880.875 4.8948C887.962 5.19232 894.937 5.61735 902.025 5.78736C910.012 5.95738 918 5.70236 925.875 6.04238C933.3 6.38241 940.725 6.21239 947.925 5.95738C956.7 5.65985 965.137 6.04238 973.462 6.97745C979.65 7.7 985.838 8.21004 992.138 7.14746C992.588 7.06246 993.262 7.01995 993.825 7.01995C1001.92 7.18997 1010.02 7.27497 1018.12 7.57249C1022.62 7.74251 1027.12 8.25254 1031.62 8.50756C1033.87 8.63507 1036.35 8.42256 1038.26 8.76258C1041.08 9.23011 1043.89 9.18761 1046.81 9.1026C1050.86 8.93259 1054.91 8.80508 1058.4 9.86766C1058.96 10.0377 1059.98 10.1227 1060.76 10.1652C1064.7 10.4202 1068.64 10.6752 1072.57 10.9302C1073.81 11.0152 1075.05 11.2703 1076.29 11.3978C1080.22 11.7378 1084.39 12.4603 1088.21 12.3328C1092.26 12.2053 1095.86 12.1628 1099.69 12.5879C1100.7 12.7154 1101.71 12.7154 1102.72 12.7579C1108.69 12.8004 1113.64 13.8204 1118.7 14.883C1121.63 15.5206 1124.55 15.9456 1128.04 15.8606C1130.29 15.8181 1132.76 15.9031 1135.01 16.0731C1138.84 16.3706 1142.55 16.8382 1146.37 17.1357C1151.21 17.4757 1156.16 17.6882 1161 18.0283C1169.44 18.6233 1177.65 19.6009 1186.42 19.5584C1188.11 19.5584 1190.02 19.4734 1191.37 19.7709C1194.75 20.5359 1197.9 20.4509 1201.27 19.9409C1202.29 19.8134 1203.52 19.6859 1204.54 19.7284C1210.5 20.0259 1216.57 20.3659 1222.54 20.7059C1224.22 20.791 1225.8 20.876 1227.49 20.9185C1230.97 20.961 1234.35 20.9185 1237.84 20.961C1242.22 21.0035 1246.61 21.131 1251 21.216C1256.74 21.3435 1262.59 21.301 1268.32 21.556C1278.11 21.981 1287.56 23.0861 1297.69 22.3211C1303.31 21.896 1309.39 21.2361 1315.35 21.1936C1316.36 21.1936 1319.31 20.1936 1320.32 20.1511C1323.92 20.1085 1325.7 16.9385 1329.3 17.0235C1332.22 17.1086 1335.04 17.6186 1337.96 17.7886C1346.51 18.3836 1354.95 19.0637 1363.61 19.4462C1369.12 19.7012 1374.86 19.4462 1380.37 19.4887C1383.86 19.4887 1387.35 19.4462 1390.72 19.6162C1393.87 19.7437 1396.91 18.3388 1400.06 18.3813C1408.5 18.5088 1416.94 13.8725 1425.37 13.915L1440 14Z" fill="#221527"/>
</svg>
