<svg width="29" height="87" viewBox="0 0 29 87" fill="none" xmlns="http://www.w3.org/2000/svg">
<path d="M13.8708 68.4598C13.6755 69.6307 13.2847 70.6066 13.0894 71.7775C12.6986 73.1436 12.5033 74.7049 12.6986 76.071C12.6986 76.4614 12.894 76.8517 12.894 77.242C12.894 77.6323 12.894 78.2178 12.6986 78.6081C12.6986 78.6081 12.6986 78.8033 12.6986 78.9984C12.6986 79.5839 12.6986 79.9742 12.6986 80.5597C12.6986 81.1452 12.5033 81.3404 11.7218 81.3404C10.745 81.3404 9.96354 81.3404 8.98673 81.3404C8.00991 81.3404 6.83773 81.3404 5.86091 81.3404C4.68873 81.3404 3.51654 81.5355 2.149 81.5355C1.75827 81.5355 1.17218 81.3404 0.781454 81.3404C0.390727 80.95 0 80.5597 0 79.9742C0 79.5839 0 79.1936 0 78.8033C0 78.6081 0 78.6081 0.195364 78.413C0.586091 78.0226 0.976818 77.8275 1.56291 77.8275C1.75827 77.8275 1.75827 77.6323 1.75827 77.4372C1.75827 77.0468 1.95364 76.8517 2.34436 76.8517C3.51654 76.6565 4.49336 76.2662 5.66554 75.8759C6.25164 75.6807 6.64236 75.4855 7.22845 75.6807C7.22845 75.6807 7.42382 75.6807 7.61918 75.6807C8.00991 75.4855 8.40063 74.9001 8.596 74.5098C8.79136 73.7291 8.98673 72.9485 8.98673 72.363C9.18209 69.6307 9.37745 66.8985 9.57282 63.9711C9.57282 62.9953 9.76818 62.2147 9.76818 61.2389C9.76818 61.0437 9.76818 60.8485 9.57282 60.6534C8.98673 59.6776 8.79136 58.5066 8.40063 57.5308C8.20527 57.1405 8.00991 56.555 7.81454 55.9695C7.22845 54.6034 6.83773 53.4325 6.25164 52.0663C6.25164 51.8712 6.05627 51.676 5.86091 51.676C4.68873 51.676 3.71191 51.676 2.53973 51.2857C2.34436 51.2857 2.149 51.0905 1.75827 50.8954C1.17218 50.5051 1.17218 50.3099 1.17218 49.7244C1.95364 46.0164 2.73509 42.3083 3.51654 38.6003C3.90727 37.8196 3.71191 36.6487 3.90727 35.6729C4.10264 33.7213 4.298 31.5745 4.68873 29.6229C3.90727 30.0132 2.93045 29.8181 2.149 29.8181C0.781454 29.8181 0.195364 29.0374 0.195364 27.8665C0.195364 26.6955 0.586091 25.5246 1.36755 24.5488C2.34436 23.1826 3.12582 21.8165 4.10264 20.6456C4.49336 20.0601 4.68873 19.4746 5.07945 19.0843C5.66554 17.523 6.64236 16.352 7.81454 15.3762C8.596 14.7907 9.57282 14.2053 10.745 14.4004C11.3311 14.4004 11.7218 14.0101 11.7218 13.4246C12.1125 11.473 11.7218 9.52143 10.5496 7.76498C10.3543 7.1795 10.5496 6.59402 11.1357 6.2037C11.3311 6.00854 11.5265 5.81338 11.5265 5.42306C11.5265 5.03274 11.7218 5.03274 12.1125 5.03274C12.1125 4.83758 12.1125 4.64242 12.3079 4.64242C12.3079 4.44726 12.5033 4.44726 12.6986 4.44726C12.894 4.44726 13.0894 4.44726 13.0894 4.44726C13.2847 4.44726 13.4801 4.2521 13.4801 4.05694C13.4801 3.47146 13.8708 3.47146 14.2615 3.47146C14.6523 3.47146 15.2384 3.66662 15.6291 3.66662C15.6291 3.08114 15.6291 3.08114 15.6291 2.88598C15.6291 3.08114 15.6291 3.08114 15.6291 3.2763C15.8245 3.08114 16.0198 3.08114 16.2152 2.88598C16.8013 2.3005 17.3874 1.91018 18.1688 1.71502C18.7549 1.71502 19.1456 1.3247 19.5364 0.934379C20.3178 -0.236582 20.7085 -0.236582 21.6854 0.544058C22.6622 1.12954 23.2483 2.10534 23.8344 3.08114C24.0297 3.2763 24.0297 3.47146 24.2251 3.66662C24.4204 3.86178 24.6158 4.05694 24.8112 4.44726C25.3973 4.83758 25.5926 5.42306 25.9834 5.81338C26.5695 6.98434 27.3509 7.96014 27.3509 9.32627C27.5463 10.4972 27.7416 11.8633 27.7416 13.0343C27.7416 14.7907 27.7416 16.352 28.1324 18.1085C28.3277 18.694 28.5231 19.4746 28.7184 20.0601C28.7184 20.4504 28.7184 20.8407 28.7184 21.4262C28.7184 21.8165 28.3277 22.2068 27.937 22.2068C27.937 21.8165 28.1324 21.6214 28.1324 21.231C28.1324 20.8407 27.937 20.6456 27.937 20.2552C27.937 20.2552 27.937 20.2552 27.7416 20.2552C27.5463 20.6456 27.5463 20.8407 27.3509 21.231C27.1555 21.6214 26.9602 21.8165 26.7648 22.2068C26.5694 22.402 26.1787 22.5972 25.788 22.402C26.9602 21.4262 26.5695 20.2552 26.5695 19.0843C26.1787 19.4746 25.788 20.2552 25.788 21.0359C25.788 21.4262 25.5926 21.8165 25.0065 22.0117C25.2019 21.6214 25.5926 21.4262 25.2019 21.0359C24.4204 22.2068 24.0297 22.2068 23.2483 21.8165C23.0529 22.0117 22.6622 22.2068 22.4668 22.402C22.4668 22.402 22.2715 22.402 22.0761 22.2068C22.2715 22.0117 22.2715 22.0117 22.4668 21.8165C22.4668 21.8165 22.4668 21.8165 22.4668 21.6214C22.0761 21.8165 21.6854 21.8165 21.49 21.4262C21.8807 21.0359 22.2715 20.8407 22.2715 20.2552C21.6854 20.2552 21.2946 20.2552 20.9039 20.4504C20.7085 20.4504 20.7085 20.4504 20.5132 20.2552C20.7085 20.2552 20.7085 20.0601 20.9039 20.0601C21.0993 19.8649 21.2946 19.8649 21.49 19.6698C21.49 19.6698 21.6854 19.4746 21.49 19.0843C21.49 18.8891 20.9039 18.8891 20.7085 19.0843C20.3178 19.2794 20.3178 19.6698 20.1225 20.0601C19.9271 21.0359 19.9271 22.0117 19.7317 22.9875C19.5364 24.3536 19.1456 25.9149 18.5595 27.281C18.5595 27.4762 18.3642 27.6713 18.3642 27.8665C18.3642 30.5987 18.1688 33.331 17.7781 36.0632C17.7781 36.6487 17.5827 37.2342 17.3874 37.8196C17.3874 38.0148 17.3874 38.21 17.3874 38.4051C18.3642 40.9422 18.5595 43.6744 18.3642 46.6019C18.1688 47.968 18.3642 49.1389 18.5595 50.5051C18.5595 51.0905 18.5595 51.2857 17.9735 51.4809C17.5827 51.676 16.9966 51.676 16.4105 51.8712C16.2152 51.8712 16.2152 51.8712 16.0198 52.0663C15.8245 54.2131 15.4337 56.3599 15.6291 58.5066C15.8245 59.6776 16.0198 60.6534 16.8013 61.6292C17.7781 62.8001 18.1688 64.1663 18.5595 65.5324C18.9503 67.0937 19.1456 68.8501 19.1456 70.6066C19.1456 72.1678 19.341 73.534 19.9271 74.9001C20.3178 75.8759 20.5132 76.8517 20.7085 78.0226C20.7085 78.2178 20.9039 78.413 21.0993 78.6081C21.6854 78.9984 21.8807 79.5839 21.8807 80.1694C21.6854 81.9258 21.49 83.4871 20.7085 85.0484C20.5132 85.4387 20.1224 85.829 19.9271 86.2194C19.5364 86.8048 18.7549 87 18.1688 87C17.5827 87 16.8013 87 16.2152 86.8048C15.043 86.4145 14.6523 85.6339 15.043 84.4629C15.6291 82.7065 16.4105 80.95 17.192 79.3888C17.192 79.1936 17.192 79.1936 17.192 78.9984C17.192 77.0468 16.9966 75.0952 16.2152 73.3388C15.6291 71.7775 14.8476 70.2162 14.2615 68.655C14.0662 68.4598 13.8708 68.4598 13.8708 68.4598ZM26.9602 20.4504C27.5463 19.4746 27.3509 18.4988 27.1555 17.523C27.1555 18.4988 27.1555 19.4746 26.9602 20.4504Z" fill="#221527"/>
</svg>
