<svg width="83" height="101" viewBox="0 0 83 101" fill="none" xmlns="http://www.w3.org/2000/svg">
<path opacity="0.4" d="M0 0V72.384L20.7445 36.1975L41.5 0H0Z" transform="translate(41.5 15.7598)" fill="url(#paint0_linear)"/>
<path opacity="0.2" d="M27.7251 25.6914L0 12.8457L27.7251 0L55.4612 12.8457L27.7251 25.6914Z" transform="translate(13.7637 75.3086)" fill="url(#paint1_linear)"/>
<path d="M0 0L20.7445 36.1975L41.5 72.384V0H0Z" transform="translate(0 15.7705)" fill="url(#paint2_linear)"/>
<path d="M0 0V72.384L20.7445 36.1975L41.5 0H0Z" transform="translate(41.5 15.7705)" fill="url(#paint3_linear)"/>
<path d="M41.5 15.5826L0 0V15.5826V31.1652L41.5 15.5826Z" transform="translate(41.4883 0.186523)" fill="url(#paint4_linear)"/>
<path opacity="0.2" d="M41.5 15.5826L0 0V15.5826V31.1652L41.5 15.5826Z" transform="translate(41.4883 0.186523)" fill="url(#paint5_linear)"/>
<path opacity="0.2" d="M0 0L20.7445 36.1975L41.5 72.384V0H0Z" transform="translate(0 15.5713)" fill="url(#paint6_linear)"/>
<path opacity="0.6" d="M0 0L20.7445 36.1975L41.5 72.384V0H0Z" transform="translate(0 15.7705)" fill="url(#paint7_linear)"/>
<path d="M0 15.5826L41.4891 0V15.5826V31.1652L0 15.5826Z" transform="translate(0 0.186523)" fill="url(#paint8_linear)"/>
<path opacity="0.6" d="M0 15.7702L41.4891 0V15.5826V31.3528L0 15.7702Z" fill="url(#paint9_linear)"/>
<path opacity="0.4" d="M82.9891 0.0110365L41.5 15.5826L0 0L0.0219171 0.0331078L41.4891 16.333L41.4671 72.2957L42.1794 16.0902L82.8028 0.331075L82.9891 0.0110365Z" transform="translate(0 15.7705)" fill="white"/>
<path opacity="0.4" d="M0 2.16302L0.0109592 72.384L20.2733 37.5329L41.511 0L0 2.16302Z" transform="translate(41.4883 15.7598)" fill="url(#paint10_linear)"/>
<defs>
<linearGradient id="paint0_linear" x2="1" gradientUnits="userSpaceOnUse" gradientTransform="translate(-26.81 50.3938) scale(58.5859 58.9991) rotate(-71.565)">
<stop stop-color="#C99FC9"/>
<stop offset="1" stop-color="#C99FC9" stop-opacity="0"/>
</linearGradient>
<linearGradient id="paint1_linear" x2="1" gradientUnits="userSpaceOnUse" gradientTransform="translate(39.5512 28.8352) scale(31.7517 31.9757) rotate(180)">
<stop stop-color="white" stop-opacity="0.3"/>
<stop offset="1" stop-color="white"/>
</linearGradient>
<linearGradient id="paint2_linear" x2="1" gradientUnits="userSpaceOnUse" gradientTransform="translate(6.14751 58.4836) scale(29.2043 29.4103) rotate(-90)">
<stop stop-color="#AFDFE8"/>
<stop offset="1" stop-color="#40BFC1"/>
</linearGradient>
<linearGradient id="paint3_linear" x2="1" gradientUnits="userSpaceOnUse" gradientTransform="translate(-8.32517 81.2879) scale(58.1447 58.5548) rotate(-90)">
<stop stop-color="#DFF1F4"/>
<stop offset="1" stop-color="#AFDFE8"/>
</linearGradient>
<linearGradient id="paint4_linear" x2="1" gradientUnits="userSpaceOnUse" gradientTransform="translate(27.3336 20.4141) scale(22.6576 22.8174) rotate(115.436)">
<stop stop-color="#40BFC1"/>
<stop offset="1" stop-color="#007F74"/>
</linearGradient>
<linearGradient id="paint5_linear" x2="1" gradientUnits="userSpaceOnUse" gradientTransform="translate(1.88728 32.9011) scale(27.1108 27.302) rotate(-78.5866)">
<stop stop-color="white" stop-opacity="0"/>
<stop offset="1" stop-color="white"/>
</linearGradient>
<linearGradient id="paint6_linear" x2="1" gradientUnits="userSpaceOnUse" gradientTransform="translate(29.843 54.9675) scale(43.3746 43.6805) rotate(-157.418)">
<stop stop-color="#C99FC9"/>
<stop offset="1" stop-color="#C99FC9" stop-opacity="0"/>
</linearGradient>
<linearGradient id="paint7_linear" x2="1" gradientUnits="userSpaceOnUse" gradientTransform="translate(29.8439 54.9669) scale(43.3746 43.6805) rotate(-157.418)">
<stop stop-opacity="0"/>
<stop offset="0.9444" stop-opacity="0.8926"/>
<stop offset="1"/>
</linearGradient>
<linearGradient id="paint8_linear" x2="1" gradientUnits="userSpaceOnUse" gradientTransform="translate(32.5371 13.0662) scale(23.5807 23.747) rotate(90)">
<stop stop-color="#009E9B"/>
<stop offset="1" stop-color="#224C68"/>
</linearGradient>
<linearGradient id="paint9_linear" x2="1" gradientUnits="userSpaceOnUse" gradientTransform="translate(50.7094 27.4563) scale(38.0685 38.337) rotate(148.294)">
<stop stop-opacity="0"/>
<stop offset="0.9444" stop-opacity="0.8926"/>
<stop offset="1"/>
</linearGradient>
<linearGradient id="paint10_linear" x2="1" gradientUnits="userSpaceOnUse" gradientTransform="translate(-26.4793 50.5011) scale(58.5859 58.9991) rotate(-71.5651)">
<stop stop-color="#C99FC9"/>
<stop offset="1" stop-color="#C99FC9" stop-opacity="0"/>
</linearGradient>
</defs>
</svg>
