<svg width="100" height="18" viewBox="0 0 100 18" fill="none" xmlns="http://www.w3.org/2000/svg">
<path d="M8.06314 11.2426L13.1757 0H16.1263L8.06314 17.6882L0 0H3.00498L8.06314 11.2426Z" transform="translate(0 0.311523)" fill="#221527"/>
<path d="M2.80102 2.73269V7.02479H10.3475V9.75748H2.80102V14.6288H11.7072V17.3615H0V0H11.1225V2.73269H2.80102Z" transform="translate(19.8398 0.311523)" fill="#221527"/>
<path d="M2.80103 10.4109V17.3466H0V0H5.8196C7.17932 0 8.59343 0.0297036 9.81718 0.787133C11.2177 1.67823 12.0879 3.10398 12.0879 5.22775C12.0879 7.1436 11.2721 8.53965 9.98035 9.49015C9.59963 9.74262 9.11012 9.95055 8.743 10.0991L12.7134 17.3466H9.36847L5.68363 10.4109H2.80103ZM2.80103 7.64855H5.8196C6.96176 7.64855 7.57364 7.54459 8.06314 7.32182C8.77019 6.96538 9.17811 6.10399 9.17811 5.15349C9.17811 4.20299 8.75659 3.3713 8.06314 3.02972C7.57364 2.80694 6.96176 2.70298 5.8196 2.70298H2.80103V7.64855Z" transform="translate(36.4707 0.311523)" fill="#221527"/>
<path d="M10.7282 4.76735C9.84437 3.56438 8.38947 2.67328 6.62184 2.67328C4.77262 2.67328 3.69844 3.66834 3.69844 4.99013C3.69844 6.26736 4.47348 6.75746 6.26831 7.18816L8.18551 7.64856C11.1497 8.39113 13.2981 9.43075 13.2981 12.5941C13.2981 15.8021 10.8914 17.9555 6.92098 17.9555C3.46729 17.9555 1.10137 16.0991 0 14.406L2.33872 12.5644C3.05937 13.8714 4.81341 15.2229 7.05695 15.2229C9.17811 15.2229 10.2795 14.2575 10.2795 12.8763C10.2795 11.5248 9.17811 11.0199 7.57364 10.6337L5.45248 10.1288C2.85542 9.51985 0.693462 8.31688 0.693462 5.15349C0.693462 2.06437 3.33132 0 6.70342 0C9.99395 0 11.9383 1.76734 12.8765 2.8812L10.7282 4.76735Z" transform="translate(52.6211)" fill="#221527"/>
<path d="M2.80102 2.73269V7.02479H10.3475V9.75748H2.80102V14.6288H11.7072V17.3615H0V0H11.1225V2.73269H2.80102Z" transform="translate(70.3125 0.311523)" fill="#221527"/>
<path d="M10.7282 4.76735C9.84437 3.56438 8.38947 2.67328 6.62183 2.67328C4.77261 2.67328 3.69843 3.66834 3.69843 4.99013C3.69843 6.26736 4.47348 6.75746 6.26831 7.18816L8.18551 7.64856C11.1497 8.39113 13.2981 9.43075 13.2981 12.5941C13.2981 15.8021 10.8914 17.9555 6.92097 17.9555C3.46728 17.9555 1.10137 16.0991 0 14.406L2.33871 12.5644C3.05936 13.8714 4.8134 15.2229 7.05694 15.2229C9.1781 15.2229 10.2795 14.2575 10.2795 12.8763C10.2795 11.5248 9.1781 11.0199 7.57363 10.6337L5.45247 10.1288C2.85541 9.51985 0.693454 8.31688 0.693454 5.15349C0.693454 2.06437 3.33131 0 6.70342 0C9.99394 0 11.9383 1.76734 12.8765 2.8812L10.7282 4.76735Z" transform="translate(85.7031)" fill="#221527"/>
</svg>
