<svg width="220" height="80" viewBox="0 0 220 80" fill="none" xmlns="http://www.w3.org/2000/svg">
<path d="M0 0.014442C4.02428 0.0196192 8.05016 -0.040031 12.0725 0.05102C15.1731 0.12125 17.6025 2.20113 18.1254 5.04205C18.7174 8.25799 17.0278 11.0039 14.4212 11.7408C14.355 11.7595 14.3011 11.8201 14.2121 11.8815C16.6966 12.5839 18.1796 14.2079 18.5971 16.6411C19.2857 20.6557 17.0436 23.9544 12.8075 24.4212C11.8679 24.5245 10.9139 24.5219 9.96646 24.5267C6.64442 24.5442 3.32215 24.5436 0.000113901 24.5499L0 0.014442ZM5.35002 19.8657C5.41908 19.8891 5.48803 19.9329 5.55675 19.9329C7.22426 19.9356 8.89474 19.994 10.5586 19.9161C12.2804 19.8354 13.3042 18.7904 13.3498 17.2504C13.3957 15.7031 12.4501 14.5871 10.7639 14.3872C9.69796 14.2608 8.60926 14.3188 7.53071 14.3038C6.81605 14.294 6.10104 14.302 5.35002 14.302V19.8657ZM5.31355 9.73664C6.86801 9.73664 8.34396 9.73923 9.8199 9.73439C10.1039 9.73337 10.3944 9.73574 10.6706 9.68081C11.7128 9.47418 12.4977 8.94644 12.7706 7.87364C13.2059 6.16325 12.102 4.68562 10.3101 4.59794C9.47687 4.55731 8.64026 4.58669 7.80525 4.5859C6.99543 4.58489 6.18537 4.58567 5.35036 4.58567C5.33372 4.76282 5.31492 4.87087 5.3148 4.97891C5.31287 6.53263 5.31355 8.08635 5.31355 9.73664ZM95.9573 25C95.3281 24.8845 94.6926 24.796 94.0711 24.6487C89.2054 23.497 86.7262 19.3611 87.1512 14.7911C87.5074 10.9646 89.4606 8.16716 93.1809 6.87208C98.3749 5.06389 104.398 7.50516 105.287 14.3304C105.404 15.2321 105.399 16.1495 105.455 17.1406H92.0411C92.3521 18.822 93.2107 20.0016 94.7078 20.6287C97.1407 21.6477 99.4199 21.1397 101.569 19.7739C101.696 19.6932 101.813 19.5973 101.936 19.5105C101.948 19.5019 101.972 19.5094 102.058 19.5094C102.716 20.465 103.395 21.4519 104.157 22.561C103.466 22.9872 102.827 23.4492 102.13 23.7952C100.847 24.4316 99.4685 24.7691 98.0357 24.8869C97.8725 24.9003 97.7135 24.9611 97.5526 24.9999L95.9573 25ZM100.825 13.9109C100.918 11.7073 98.7923 10.0245 96.1007 10.1294C93.8618 10.2167 91.8715 12.0891 92.1104 13.9109H100.825ZM115.217 25C114.443 24.8461 113.656 24.7374 112.897 24.5306C109.271 23.5426 106.769 20.5142 106.44 16.8128C106.129 13.3215 107.154 10.3626 109.992 8.16007C114.293 4.82247 122.744 5.57958 124.423 13.4765C124.544 14.0423 124.614 14.6231 124.65 15.2005C124.689 15.8135 124.659 16.4311 124.659 17.1402H111.333C111.449 18.1274 111.838 18.9211 112.482 19.5776C113.955 21.0799 115.795 21.3626 117.782 21.0182C119.049 20.7986 120.218 20.3235 121.27 19.4333L123.415 22.5389C122.857 22.908 122.35 23.2983 121.795 23.5986C120.413 24.345 118.918 24.7389 117.352 24.8835C117.17 24.9003 116.993 24.96 116.813 24.9998C116.281 25 115.749 25 115.217 25ZM111.365 13.9078H120.088C120.2 11.7718 118.125 10.0753 115.517 10.1256C113.202 10.1701 111.199 11.9778 111.365 13.9078ZM27.0094 25C26.4393 24.8848 25.8655 24.7849 25.2998 24.6517C21.7956 23.8269 19.7257 21.2365 19.7226 17.6757C19.7199 14.2626 19.7221 10.8494 19.7221 7.43628V6.82458H24.4586V7.47635C24.4586 10.7021 24.4682 13.9277 24.4543 17.1533C24.4478 18.6164 24.901 19.8554 26.3048 20.4921C27.8264 21.1822 29.3845 21.1569 30.792 20.1669C31.8231 19.4419 32.1145 18.3322 32.1166 17.1399C32.1229 13.933 32.1189 10.726 32.1189 7.51923V6.814H36.804L36.8042 7.44618C36.8042 10.8219 36.8058 14.1976 36.8036 17.5733C36.8012 21.6468 34.234 24.4468 30.1197 24.8737C29.9166 24.8949 29.7177 24.9567 29.5168 24.9995C28.6809 25 27.8451 25 27.0094 25ZM71.7331 24.4935V0.0309864H88.9619V2.40394C88.9619 2.92909 88.9262 3.45727 88.9719 3.97859C89.0173 4.49766 88.8062 4.59839 88.3226 4.59569C84.9231 4.57656 81.5235 4.58556 78.124 4.58556H77.0487V9.73664H77.6903C80.2543 9.73664 82.8183 9.75116 85.382 9.72471C85.9003 9.71942 86.0215 9.88205 86.0097 10.3654C85.9779 11.6543 85.9987 12.9445 85.9987 14.298H77.0101V24.4935H71.7331ZM125.859 24.484V23.8404C125.859 18.3659 125.859 12.8917 125.86 7.41715C125.86 6.69853 125.86 6.69223 126.611 6.69909C129.211 6.72273 131.821 6.61333 134.407 6.81108C138.092 7.09267 140.976 8.7317 142.342 12.324C143.729 15.9744 142.672 20.1404 139.852 22.4228C138.191 23.7674 136.236 24.4295 134.131 24.5045C131.458 24.6 128.779 24.5346 126.102 24.5365C126.048 24.5366 125.994 24.5139 125.859 24.484ZM130.376 20.7295C131.284 20.7295 132.134 20.7297 132.985 20.7295C136.043 20.7285 137.969 19.0262 138.312 16.0206C138.558 13.8626 137.376 11.7162 135.494 10.9542C133.836 10.2832 132.103 10.6399 130.377 10.5451C130.376 13.972 130.376 17.3039 130.376 20.7295ZM46.3524 10.8204H38.3272V6.80624H52.8354C52.8354 7.56357 52.7969 8.32462 52.8467 9.08026C52.8925 9.77682 52.6779 10.3149 52.2327 10.8618C49.8197 13.8272 47.4449 16.8224 45.0575 19.808C44.9295 19.9681 44.8076 20.1331 44.6081 20.3933H52.9317V24.4845H38.2832C38.2832 23.367 38.2666 22.25 38.2989 21.1342C38.3045 20.9427 38.4994 20.743 38.6367 20.5705C41.0859 17.4899 43.54 14.4133 45.9916 11.3346C46.0936 11.2062 46.1807 11.0659 46.3524 10.8204ZM54.2282 10.8249C54.2282 9.55814 54.2271 8.39698 54.2299 7.23572C54.2301 7.10764 54.2516 6.97956 54.2668 6.81344H68.7302C68.7302 7.89266 68.7421 8.95454 68.7175 10.0156C68.7138 10.1756 68.554 10.3441 68.4397 10.4876C65.9492 13.6087 63.4548 16.7267 60.9625 19.8464C60.8394 20.0005 60.7296 20.1651 60.5379 20.4287H61.264C63.6181 20.4287 65.9725 20.4384 68.3269 20.4202C68.7642 20.417 68.9276 20.5231 68.9148 20.9834C68.8828 22.1414 68.9042 23.301 68.9042 24.4948H54.2423C54.2423 23.3383 54.233 22.2011 54.2542 21.0644C54.2567 20.922 54.4081 20.7732 54.5113 20.6435C56.9027 17.6362 59.2973 14.6314 61.691 11.6257C61.8738 11.396 62.0527 11.1633 62.3171 10.8247L54.2282 10.8249Z" transform="translate(39.9902 27)" fill="white"/>
</svg>
