<svg width="220" height="80" viewBox="0 0 220 80" fill="none" xmlns="http://www.w3.org/2000/svg">
<path d="M0.23745 21.7218L2.28545 21.3931V2.36041L0 2.06163L0.118725 0H14.4251L14.0689 5.76658L11.2195 5.67694L11.0414 2.06163H6.61891V10.6368H8.54819L8.99341 8.66481L10.982 8.72456V14.6405H8.99341L8.51851 12.6088H6.58923V21.6919H11.0414L11.4569 17.7479L14.4547 17.8375L14.6922 23.8432H0.148406L0.23745 21.7218Z" transform="translate(30 28)" fill="white"/>
<path d="M0.178087 16.9711L0.26713 15.2082L1.86992 14.8796V2.86835L0 2.68908V0.896359L4.68963 0.20915L5.0458 1.22502V1.91223C6.17369 0.717087 7.53902 0 9.29022 0C11.8428 0 13.7424 1.55369 13.7424 4.63119V14.8497L15.4342 15.1783L15.3452 16.9412H9.76512V5.52755C9.76512 3.88422 9.17149 2.95799 7.68743 2.95799C7.18285 2.95799 6.82668 3.04762 6.44082 3.19701C6.20337 3.40616 5.96592 3.70495 5.75815 3.97386V14.9094L7.44998 15.2381L7.33126 17.0009H0.178087V16.9711Z" transform="translate(45.8496 34.9014)" fill="white"/>
<path d="M0.207772 16.9711L0.267129 15.2082L1.86992 14.8796V2.86835L0 2.68908V0.896359L4.68964 0.20915L5.0458 1.22502V1.91223C6.17369 0.717087 7.53903 0 9.29022 0C11.8428 0 13.7424 1.55369 13.7424 4.63119V14.8497L15.4342 15.1783L15.3452 16.9412H9.7948V5.52755C9.7948 3.88422 9.20117 2.95799 7.71711 2.95799C7.21253 2.95799 6.85636 3.04762 6.47051 3.19701C6.23306 3.40616 5.9956 3.70495 5.78784 3.97386V14.9094L7.47967 15.2381L7.36094 17.0009H0.207772V16.9711Z" transform="translate(135.486 34.9014)" fill="white"/>
<path d="M9.05277 19.5705C8.39978 19.8394 7.24222 20.1382 5.72847 20.1382C3.73983 20.1382 1.8996 19.2418 1.8996 16.3137V5.79646L0 5.49767L0.0890445 3.40617L2.22609 3.31653L3.14621 0.119514L5.87688 0V3.43604H8.81532L8.60755 5.52755L5.90656 5.82633V16.3436C5.90656 17.2101 6.38146 17.7778 7.2719 17.7778H8.87468L9.05277 19.5705Z" transform="translate(61.0762 31.9746)" fill="white"/>
<path d="M0.207772 16.7918L0.267138 15.0588L1.78087 14.7003V2.68908L0 2.50981V0.717087L4.86773 0.0298782L5.19421 1.19515V1.58357C6.4705 0.627451 8.19202 0 10.2697 0L10.982 0.627451L10.4775 5.169L7.80615 5.07937L7.53903 2.6592C6.91573 2.74883 6.32211 2.92811 5.81753 3.28665V14.7302L7.50934 15.0887L7.39063 16.8217H0.207772V16.7918Z" transform="translate(181.018 35.0811)" fill="white"/>
<path d="M0.178089 16.7918L0.267129 15.0588L1.78087 14.7003V2.68908L0 2.50981V0.717087L4.86772 0.0298782L5.19421 1.19515V1.58357C6.4705 0.627451 8.19202 0 10.2697 0L10.982 0.627451L10.4181 5.169L7.7468 5.07937L7.47967 2.6592C6.85636 2.74883 6.26273 2.92811 5.75815 3.28665V14.7302L7.44999 15.0887L7.33126 16.8217H0.178089V16.7918Z" transform="translate(111.148 35.0811)" fill="white"/>
<path d="M0.178085 16.7918L0.267129 15.0588L1.78087 14.7003V2.68908L0 2.50981V0.717087L4.86772 0.0298782L5.19421 1.19515V1.58357C6.4705 0.627451 8.19201 0 10.24 0L10.9524 0.627451L10.4478 5.169L7.77648 5.07937L7.50934 2.6592C6.88604 2.74883 6.29242 2.92811 5.78784 3.28665V14.7302L7.47966 15.0887L7.36094 16.8217H0.178085V16.7918Z" transform="translate(71.1387 35.0811)" fill="white"/>
<path d="M4.18505 9.68068C4.18505 12.549 5.43166 14.76 7.8952 14.76C9.17149 14.76 10.1807 14.4911 11.3679 13.9234L12.0506 15.507C10.8336 16.493 9.05277 17.24 6.82668 17.24C2.49322 17.24 0 13.4753 0 8.63493C0 4.51168 1.81055 0 6.76732 0C11.1008 0 12.7332 4.03362 12.7332 8.51541L12.3177 9.59104L4.18505 9.68068ZM4.12569 7.76845L9.11213 7.52942C9.02309 5.52755 8.60755 2.36041 6.64859 2.36041C6.17369 2.36041 5.8472 2.45005 5.25358 2.74884C4.45218 4.12325 4.12569 6.60318 4.12569 7.76845Z" transform="translate(82.5059 34.8711)" fill="white"/>
<path d="M4.18505 9.68068C4.18505 12.549 5.43166 14.76 7.8952 14.76C9.17149 14.76 10.1807 14.4911 11.3679 13.9234L12.0506 15.507C10.8336 16.493 9.05277 17.24 6.82668 17.24C2.49322 17.24 0 13.4753 0 8.63493C0 4.51168 1.81056 0 6.76732 0C11.1008 0 12.7332 4.03362 12.7332 8.51541L12.3177 9.59104L4.18505 9.68068ZM4.12569 7.76845L9.11213 7.52942C9.02309 5.52755 8.60756 2.36041 6.6486 2.36041C6.1737 2.36041 5.8472 2.45005 5.25358 2.74884C4.45218 4.12325 4.12569 6.60318 4.12569 7.76845Z" transform="translate(151.484 34.8711)" fill="white"/>
<path d="M4.18504 9.68068C4.18504 12.549 5.43165 14.76 7.89519 14.76C9.17148 14.76 10.1806 14.4911 11.3679 13.9234L12.0506 15.507C10.8336 16.493 9.05277 17.24 6.82668 17.24C2.49322 17.24 0 13.4753 0 8.63493C0 4.51168 1.81055 0 6.76731 0C11.1008 0 12.7332 4.03362 12.7332 8.51541L12.3177 9.59104L4.18504 9.68068ZM4.12569 7.76845L9.11212 7.52942C9.02308 5.52755 8.60755 2.36041 6.64859 2.36041C6.17369 2.36041 5.84719 2.45005 5.25357 2.74884C4.45218 4.12325 4.096 6.60318 4.12569 7.76845Z" transform="translate(122.516 34.8711)" fill="white"/>
<path d="M10.9524 16.9113L10.5368 15.4771C9.43862 16.5229 8.3701 17.1503 6.70795 17.1503C4.15537 17.1503 1.86991 15.8656 1.86991 12.31V2.39029L0 2.21102V0.627452L5.40197 0L5.81752 1.43418V11.8319C5.81752 13.6545 6.55955 14.6107 8.01393 14.6107C8.42946 14.6107 8.96372 14.5509 9.43862 14.3716C9.70575 14.1027 9.97288 13.7741 10.1806 13.4454V2.39029L8.25137 2.21102V0.627452L13.7127 0L14.1283 1.43418V14.8198L15.8201 15.1485L15.6123 16.9113H10.9524Z" transform="translate(164.484 34.9629)" fill="white"/>
<path d="M7.8952 14.8198C7.03445 14.8198 6.35178 14.6704 5.81752 14.3716V3.82447C6.05497 3.46592 6.3221 3.13726 6.58923 2.83847C7.09381 2.6592 7.53903 2.59944 8.07329 2.59944C10.2994 2.59944 10.6852 4.87022 10.6852 8.93371C10.6852 12.8478 10.0916 13.9234 9.9432 14.3716C9.3199 14.6704 8.66691 14.8198 7.8952 14.8198ZM14.5438 8.21663C14.5438 3.16714 13.0597 0 9.34958 0C6.88604 0 5.72847 1.43417 5.25357 2.03175V1.46405L4.83804 0.0298788L0 0.717087V2.45005L1.86992 2.68908V23.0663L0.267129 23.395L0.178089 25.0981H7.33126L7.44998 23.395L5.75815 23.0663V16.6125C6.44082 17.0009 7.39062 17.24 8.42946 17.24C14.4844 17.24 14.5438 11.0551 14.5438 8.21663Z" transform="translate(95.4473 34.9014)" fill="white"/>
</svg>
